<?xml version="1.0" encoding="utf-8" standalone="yes"?>
<!-- Generator: Adobe Illustrator 24.1.2, SVG Export Plug-In . SVG Version: 6.00 Build 0) --><svg
        xmlns:cc="http://creativecommons.org/ns#" xmlns:dc="http://purl.org/dc/elements/1.1/"
        xmlns:inkscape="http://www.inkscape.org/namespaces/inkscape"
        xmlns:rdf="http://www.w3.org/1999/02/22-rdf-syntax-ns#"
        xmlns:sodipodi="http://sodipodi.sourceforge.net/DTD/sodipodi-0.dtd" xmlns:svg="http://www.w3.org/2000/svg"
        xmlns="http://www.w3.org/2000/svg" xmlns:xlink="http://www.w3.org/1999/xlink" version="1.1" id="svg92"
        inkscape:version="1.0.1 (3bc2e813f5, 2020-09-07)" sodipodi:docname="logo.svg" x="0px" y="0px"
        viewBox="0 0 252.5 72.4" style="enable-background:new 0 0 252.5 72.4;zoom: 1;" xml:space="preserve">
        <style type="text/css">
                .st0 {
                        fill: #D4D4D4;
                }

                .st1 {
                        font-family: 'ArialMT';
                }

                .st2 {
                        font-size: 40px;
                }

                .st3 {
                        fill: #F78B1F;
                }
        </style>
        <namedview bordercolor="#666666" borderopacity="1" gridtolerance="10" guidetolerance="10" id="namedview94"
                inkscape:current-layer="svg92" inkscape:cx="104.08636" inkscape:cy="36.216"
                inkscape:document-rotation="0" inkscape:pageopacity="0" inkscape:pageshadow="2"
                inkscape:window-height="1017" inkscape:window-maximized="1" inkscape:window-width="1920"
                inkscape:window-x="-8" inkscape:window-y="-8" inkscape:zoom="4.542504" objecttolerance="10"
                pagecolor="#ffffff" showgrid="false"></namedview>
        <desc id="desc54">
                Created with Fabric.js 1.6.0-rc.1
        </desc>
        <g id="g70" transform="translate(87.321709,45.125911)"><text transform="matrix(1 0 0 1 7.308594e-06 0)"
                        class="st0 st1 st2"></text><text transform="matrix(1 0 0 1 -50.59 8.98)" class="st0 st1 st2">
                        o
                </text>
                <text transform="matrix(1 0 0 1 -17.2306 8.98)" class="st0 st1 st2"></text><text
                        transform="matrix(1 0 0 1 -27.38 8.98)" class="st0 st1 st2">
                        v
                </text>
                <text transform="matrix(1 0 0 1 3.7333 8.98)" class="st0 st1 st2"></text><text y=""
                        transform="matrix(1 0 0 1 -3.77 8.98)" class="st0 st1 st2" x="-3.137678px">
                        i
                </text>
                <text transform="matrix(1 0 0 1 16.23 8.98)" class="st0 st1 st2"></text><text y=""
                        transform="matrix(1 0 0 1 5.39 8.98)" class="st0 st1 st2" x="-4.293664px">
                        e
                </text>
                <text transform="matrix(1 0 0 1 38.7494 8.98)" class="st0 st1 st2"></text><text y="0px"
                        transform="matrix(1 0 0 1 29.77 8.98)" class="st0 st1 st2" x="-6.92623px">
                        s
                </text>
                <text transform="matrix(1 0 0 1 60.8833 8.98)" class="st0 st1 st2"></text></g>
        <g id="g76" transform="translate(21.305709,45.346053)">
                <text transform="matrix(1 0 0 1 0 8.607625e-06)" class="st3 st1 st2"></text>
                <text y="0px" transform="matrix(1 0 0 1 -17.41 8.98)" class="st3 st1 st2" x="0px">
                        M
                </text>
                <text transform="matrix(1 0 0 1 27.0236 8.98)" class="st3 st1 st2"></text></g>
        <g id="g82" transform="translate(149.96642,45.714012)">
                <text transform="matrix(1 0 0 1 5.039453e-04 3.367404e-04)" class="st3 st1 st2"></text>
                <text y="-" transform="matrix(1 0 0 1 -14.3795 8.9804)" class="st3 st1 st2" x="-5.44965px">
                        N
                </text>
                <text transform="matrix(1 0 0 1 25.6205 8.9804)" class="st3 st1 st2"></text></g>
        <g id="g90" transform="translate(190.31414,45.340343)">
                <text transform="matrix(1 0 0 1 2.1539 5.628055e-03)" class="st0 st1 st2"></text>
                <text y="" transform="matrix(1 0 0 1 -26.0961 8.9856)" class="st0 st1 st2" x="-6.275348px">
                        o
                </text>
                <text y="1.155983px" transform="matrix(1 0 0 1 7.2633 8.9856)" class="st0 st1 st2"
                        x="-6.275348px"></text><text y="" transform="matrix(1 0 0 1 -2.8961 8.9856)" class="st0 st1 st2"
                        x="-7.761611px">
                        w
                </text>
                <text transform="matrix(1 0 0 1 37.1039 8.9856)" class="st0 st1 st2"></text>
        </g>
</svg>